<?xml version="1.0" encoding="utf-8"?>
<!-- Generator: Adobe Illustrator 22.1.0, SVG Export Plug-In . SVG Version: 6.00 Build 0)  -->
<svg version="1.1" id="图层_1" xmlns="http://www.w3.org/2000/svg" xmlns:xlink="http://www.w3.org/1999/xlink" x="0px" y="0px"
	 viewBox="0 0 595.3 595.3" style="enable-background:new 0 0 595.3 595.3;" xml:space="preserve">
<style type="text/css">
	.st0{clip-path:url(#SVGID_2_);fill:#FFFFFF;stroke:#FFFFFF;stroke-miterlimit:10;}
	.st1{clip-path:url(#SVGID_4_);fill:#FFFFFF;stroke:#FFFFFF;stroke-miterlimit:10;}
	.st2{clip-path:url(#SVGID_6_);fill:#FFFFFF;stroke:#FFFFFF;stroke-miterlimit:10;}
	.st3{clip-path:url(#SVGID_8_);fill:#FFFFFF;stroke:#FFFFFF;stroke-miterlimit:10;}
	.st4{clip-path:url(#SVGID_10_);fill:#FFFFFF;stroke:#FFFFFF;stroke-miterlimit:10;}
	.st5{clip-path:url(#SVGID_12_);fill:#FFFFFF;stroke:#FFFFFF;stroke-miterlimit:10;}
	.st6{clip-path:url(#SVGID_14_);fill:#FFFFFF;stroke:#FFFFFF;stroke-miterlimit:10;}
	.st7{clip-path:url(#SVGID_16_);fill:#FFFFFF;stroke:#FFFFFF;stroke-miterlimit:10;}
	.st8{clip-path:url(#SVGID_18_);fill:#FFFFFF;stroke:#FFFFFF;stroke-miterlimit:10;}
</style>
<g>
	<g>
		<defs>
			<rect id="SVGID_1_" x="56.8" y="20.4" width="480.5" height="556"/>
		</defs>
		<use xlink:href="#SVGID_1_"  style="overflow:visible;fill:#FFFFFF;"/>
		<clipPath id="SVGID_2_">
			<use xlink:href="#SVGID_1_"  style="overflow:visible;"/>
		</clipPath>
		<path class="st0" d="M56.8,546.4v-51c0-3.6,2.9-6.4,6.5-6.4h34.1c1.2,0,2.2-1,2.2-2.2v-13.2c0-1.2,1-2.2,2.2-2.2h11.2
			c1.2,0,2.2,1,2.2,2.2v13.2c0,1.2,1,2.2,2.2,2.2h34.2c3.5,0,6.4,2.9,6.4,6.4v51c0,3.5-2.9,6.4-6.4,6.4h-34.2c-1.2,0-2.2,1-2.2,2.2
			v19.2c0,1.2-1,2.2-2.2,2.2h-11.2c-1.2,0-2.2-1-2.2-2.2V555c0-1.2-1-2.2-2.2-2.2H63.3C59.7,552.8,56.8,549.9,56.8,546.4
			 M73.5,501.4v38.9h23.9c1.2,0,2.2-1,2.2-2.2v-34.6c0-1.2-1-2.2-2.2-2.2L73.5,501.4L73.5,501.4z M139.2,501.4h-21.9
			c-1.2,0-2.2,1-2.2,2.2v34.6c0,1.2,1,2.2,2.2,2.2h21.9c1.2,0,2.2-1,2.2-2.2v-34.6C141.5,502.4,140.5,501.4,139.2,501.4"/>
		<use xlink:href="#SVGID_1_"  style="overflow:visible;fill:none;stroke:#FFFFFF;stroke-miterlimit:10;"/>
	</g>
	<g>
		<defs>
			<rect id="SVGID_3_" x="56.8" y="20.4" width="480.5" height="556"/>
		</defs>
		<use xlink:href="#SVGID_3_"  style="overflow:visible;fill:#FFFFFF;"/>
		<clipPath id="SVGID_4_">
			<use xlink:href="#SVGID_3_"  style="overflow:visible;"/>
		</clipPath>
		<path class="st1" d="M446.9,520.7c-4-3-13.1-9.7-17.3-12.9c-1.1-0.8-1.2-2.3-0.3-3.3l7.6-7.9c0.8-0.8,2.1-0.9,3-0.2
			c6.4,5,11.3,10,15.7,14c0.9,0.8,1,2.2,0.2,3.1l-5.9,6.8C449.1,521.3,447.8,521.4,446.9,520.7 M452.4,492.5
			c-4.8-4.3-9.6-7.3-14.8-11c-1.3-0.9-1.4-2.8-0.3-3.9l6.7-6.9c1-0.9,2.5-1,3.5-0.2c4.2,3.2,8.2,7.3,13.8,12.1
			c1.1,1,1.2,2.7,0.2,3.8l-5.5,6C455.1,493.5,453.5,493.5,452.4,492.5 M461.2,569.8v-74c0-3.6,3-6.6,6.6-6.6h23.6v-17.3
			c0-1.3,1-2.3,2.3-2.3h10.7c1.3,0,2.3,1,2.3,2.3v17.3h24c3.6,0,6.6,3,6.6,6.6v74c0,3.6-3,6.5-6.6,6.5h-62.9
			C464.2,576.3,461.2,573.4,461.2,569.8 M476.4,503.8V524c0,1.7,1.4,3.1,3.1,3.1h10.7c1.7,0,3.1-1.4,3.1-3.1v-20.2
			c0-1.7-1.4-3.1-3.1-3.1h-10.7C477.7,500.7,476.4,502.1,476.4,503.8 M476.4,540.8v21.6c0,1.7,1.4,3.1,3.1,3.1h10.7
			c1.7,0,3.1-1.4,3.1-3.1v-21.6c0-1.7-1.4-3.1-3.1-3.1h-10.7C477.7,537.7,476.4,539.1,476.4,540.8 M518.5,500.7h-9.7
			c-1.7,0-3.1,1.4-3.1,3.1V524c0,1.7,1.4,3.1,3.1,3.1h9.7c1.7,0,3.1-1.4,3.1-3.1v-20.2C521.6,502.1,520.2,500.7,518.5,500.7
			 M505.7,540.8v21.6c0,1.7,1.4,3.1,3.1,3.1h9.7c1.7,0,3.1-1.4,3.1-3.1v-21.6c0-1.7-1.4-3.1-3.1-3.1h-9.7
			C507.1,537.7,505.7,539.1,505.7,540.8"/>
		<use xlink:href="#SVGID_3_"  style="overflow:visible;fill:none;stroke:#FFFFFF;stroke-miterlimit:10;"/>
	</g>
	<g>
		<defs>
			<rect id="SVGID_5_" x="56.8" y="20.4" width="480.5" height="556"/>
		</defs>
		<use xlink:href="#SVGID_5_"  style="overflow:visible;fill:#FFFFFF;"/>
		<clipPath id="SVGID_6_">
			<use xlink:href="#SVGID_5_"  style="overflow:visible;"/>
		</clipPath>
		<path class="st2" d="M441.8,575.1l-11.1-5.3c-1.1-0.5-1.5-1.9-0.8-2.9c2.1-3.3,6.5-10.5,9.3-18.1c2.9-8,5.7-16,6.8-19.4
			c0.3-1,1.4-1.6,2.4-1.3l9.7,2.7c1,0.2,1.7,1.3,1.4,2.3c-0.9,3.8-3.2,12.6-6.5,21.4c-3.2,8.8-7,16.4-8.7,19.7
			C444,575.2,442.8,575.5,441.8,575.1"/>
		<use xlink:href="#SVGID_5_"  style="overflow:visible;fill:none;stroke:#FFFFFF;stroke-miterlimit:10;"/>
	</g>
	<g>
		<defs>
			<rect id="SVGID_7_" x="56.8" y="20.4" width="480.5" height="556"/>
		</defs>
		<use xlink:href="#SVGID_7_"  style="overflow:visible;fill:#FFFFFF;"/>
		<clipPath id="SVGID_8_">
			<use xlink:href="#SVGID_7_"  style="overflow:visible;"/>
		</clipPath>
		<path class="st3" d="M275.9,574.7h-87.7c-2.9,0-5.3-2.4-5.3-5.3v-89.6c0-2.9,2.4-5.3,5.3-5.3h87.7c2.9,0,5.3,2.4,5.3,5.3v89.6
			C281.2,572.3,278.8,574.7,275.9,574.7 M199.9,563.8h64.2c1.5,0,2.8-1.2,2.8-2.8v-72.7c0-1.5-1.2-2.8-2.8-2.8h-64.2
			c-1.6,0-2.8,1.2-2.8,2.8V561C197.1,562.5,198.4,563.8,199.9,563.8"/>
		<use xlink:href="#SVGID_7_"  style="overflow:visible;fill:none;stroke:#FFFFFF;stroke-miterlimit:10;"/>
	</g>
	<g>
		<defs>
			<rect id="SVGID_9_" x="56.8" y="20.4" width="480.5" height="556"/>
		</defs>
		<use xlink:href="#SVGID_9_"  style="overflow:visible;fill:#FFFFFF;"/>
		<clipPath id="SVGID_10_">
			<use xlink:href="#SVGID_9_"  style="overflow:visible;"/>
		</clipPath>
		<path class="st4" d="M257.5,502.8v-6.3c0-0.8-0.7-1.6-1.6-1.6h-47.6c-0.9,0-1.6,0.7-1.6,1.6v6.3c0,0.9,0.7,1.6,1.6,1.6h15.1
			c0.9,0,1.6,0.7,1.6,1.6v9.7c0,0.8-0.7,1.5-1.6,1.5h-15.1c-0.9,0-1.6,0.7-1.6,1.6v6.3c0,0.9,0.7,1.6,1.6,1.6h15.1
			c0.9,0,1.6,0.7,1.6,1.6v14.5c0,0.8-0.7,1.6-1.6,1.6h-15.1c-0.9,0-1.6,0.7-1.6,1.6v6.3c0,0.9,0.7,1.6,1.6,1.6h47.6
			c0.9,0,1.6-0.7,1.6-1.6V546c0-0.9-0.7-1.6-1.6-1.6h-15.1c-0.9,0-1.6-0.7-1.6-1.6v-14.5c0-0.8,0.7-1.6,1.6-1.6h15.1
			c0.9,0,1.6-0.7,1.6-1.6v-6.3c0-0.9-0.7-1.6-1.6-1.6h-15.1c-0.9,0-1.6-0.7-1.6-1.5V506c0-0.9,0.7-1.6,1.6-1.6h15.1
			C256.8,504.4,257.5,503.7,257.5,502.8"/>
		<use xlink:href="#SVGID_9_"  style="overflow:visible;fill:none;stroke:#FFFFFF;stroke-miterlimit:10;"/>
	</g>
	<g>
		<defs>
			<rect id="SVGID_11_" x="56.8" y="20.4" width="480.5" height="556"/>
		</defs>
		<use xlink:href="#SVGID_11_"  style="overflow:visible;fill:#FFFFFF;"/>
		<clipPath id="SVGID_12_">
			<use xlink:href="#SVGID_11_"  style="overflow:visible;"/>
		</clipPath>
		<path class="st5" d="M253.4,542.2l-8.3-6.1c-0.7-0.5-0.9-1.5-0.4-2.2l3.7-5.1c0.5-0.7,1.5-0.9,2.2-0.3l8.4,6.1
			c0.7,0.5,0.9,1.5,0.3,2.2l-3.7,5.1C255.1,542.5,254.2,542.7,253.4,542.2"/>
		<use xlink:href="#SVGID_11_"  style="overflow:visible;fill:none;stroke:#FFFFFF;stroke-miterlimit:10;"/>
	</g>
	<g>
		<defs>
			<rect id="SVGID_13_" x="56.8" y="20.4" width="480.5" height="556"/>
		</defs>
		<use xlink:href="#SVGID_13_"  style="overflow:visible;fill:#FFFFFF;"/>
		<clipPath id="SVGID_14_">
			<use xlink:href="#SVGID_13_"  style="overflow:visible;"/>
		</clipPath>
		<path class="st6" d="M307.3,486.4V478c0-1,0.8-1.8,1.9-1.8h106.7c1,0,1.8,0.8,1.8,1.8v8.3c0,1-0.8,1.8-1.8,1.8h-53.1
			c-3.6,7.4-6.8,13.7-13.1,22.7c-0.6,0.9,0,2.3,1.1,2.3h51.9c3,0,5.4,2.4,5.4,5.4v50.1c0,3-2.4,5.4-5.4,5.4h-66.6
			c-3,0-5.4-2.4-5.4-5.4v-33.4c-5.4,5.4-10.2,10.1-16.2,15.3c-0.8,0.6-2,0.5-2.6-0.2l-8.1-9.3c-0.7-0.8-0.6-2,0.3-2.7
			c18.1-14.3,30.4-30.1,39.3-47.4c0.6-1.2-0.3-2.7-1.7-2.7h-32.5C308.2,488.2,307.3,487.4,307.3,486.4 M347.6,563.1h43.5
			c0.4,0,0.8-0.4,0.8-0.8v-36.3c0-0.4-0.4-0.8-0.8-0.8h-43.5c-0.4,0-0.8,0.3-0.8,0.8v36.3C346.8,562.7,347.2,563.1,347.6,563.1"/>
		<use xlink:href="#SVGID_13_"  style="overflow:visible;fill:none;stroke:#FFFFFF;stroke-miterlimit:10;"/>
	</g>
	<g>
		<defs>
			<rect id="SVGID_15_" x="56.8" y="20.4" width="480.5" height="556"/>
		</defs>
		<use xlink:href="#SVGID_15_"  style="overflow:visible;fill:#FFFFFF;"/>
		<clipPath id="SVGID_16_">
			<use xlink:href="#SVGID_15_"  style="overflow:visible;"/>
		</clipPath>
		<path class="st7" d="M234.7,247.5c21.4-6,42.9-12.3,64.3-18.1c59.3,16.5,118.2,33.6,177.4,50.3c-5.1,17.3,0.2,35.6-3.9,52.9
			c-1.7,7.1-5.9,13.5-11.9,17.6c-15.7,10.8-36.1,11.1-51.7,22c-11.4,8.6-18,21.7-27.2,32.5c-6,7.1-13.9,13.9-23.7,14.8
			c-11.2,1-21.9-3.3-32.4-6.6c-9.1-2.9-18.5-6-28.2-5.5c-18,1.1-34.1,10.9-52.1,12c-8,0.5-15.9-2.4-21.9-7.6
			c-12.2-10.4-19-25.4-30.3-36.6c-3.3-3.2-7-5.9-11.1-8c-14.3-7.3-30.9-9.2-44.3-18.1c-6.5-4.2-11-11.2-12.7-18.7
			c-3.8-16.7,0.3-34.2-3.7-50.8C159.2,268.8,197,258.1,234.7,247.5"/>
		<use xlink:href="#SVGID_15_"  style="overflow:visible;fill:none;stroke:#FFFFFF;stroke-miterlimit:10;"/>
	</g>
</g>
<g>
	<g>
		<defs>
			<path id="SVGID_17_" d="M101.6,193.1c-5.9,8.4-11.2,18-10.7,28.6c0.5,9.9,5.9,18.7,11.7,26.5v0.2c6.4,9.2,14.1,17.9,18,28.5
				c3.5-1.3,6.8-2.7,10.2-4.1c9.3-3.6,18.6-7.5,28-11.1c11.5-4.7,23.2-9.3,34.8-13.9c11.7-4.7,23.3-9.4,35-14.1
				c5-1.9,10-3.9,14.9-5.9c4.7-2,9.6-3.6,14.2-5.8c4.7-2.3,4.7-9.7,0.1-12.1c-5-2.1-10.2-3.5-15.3-5.3c-4.9-1.7-10-3.3-14.9-5
				c-11.6-3.8-23.1-7.7-34.6-11.5c-10.1-3.4-20.2-6.8-30.3-10.2c-2.1-0.6-4.1-1.5-6.2-1.7l-0.5,0.2l-0.3-0.6
				c-9.2-3.3-18.6-6.3-27.8-9.4c-2.6-0.9-5.2-1.8-7.8-2.6C115.7,174.6,107.9,183.5,101.6,193.1 M462.9,169l-0.2,0.6l-0.5-0.1
				c-8.2,2.2-16.2,5.4-24.4,7.9c-8.4,2.9-16.8,5.6-25.2,8.5c-10.1,3.3-20.1,6.8-30.2,10.1v0.1c-4,1.4-8.3,2.5-12.3,4.2l-0.2,0.6
				l-0.4-0.2c-5.4,1.1-10.5,3.4-15.7,5c-4.3,1.4-8.6,2.6-12.8,4.3c-4.5,2.3-4.8,9.3-0.4,11.9c4.1,2.1,8.7,3.5,13,5.4
				c5.6,2.2,11,4.4,16.6,6.7c4.1,1.6,8.2,3.4,12.3,4.9v0.1c10.1,4,20.2,8.1,30.3,12.1c8.4,3.3,16.7,6.7,25.1,10
				c8.4,3.4,16.7,6.7,25.1,10.1c5,1.9,9.8,4,14.7,5.8c0.7-2.1,1.7-4,2.4-6.1c7.5-13.4,19.1-24.4,25-38.7c3.4-8,2.9-17.3-0.6-25.2
				c-5.9-14-17-24.9-24.3-38.1c-0.7-1.6-1.5-3.3-2.3-4.9C473,165.7,467.9,167.1,462.9,169 M179.5,73.6c-13.2,5.5-27.7,7.7-39.9,15.5
				c-7.1,4.3-11.9,11.6-13.6,19.7c-3.3,14.9-0.9,30.5-3,45.5c-0.5,2.3-1,4.5-1.6,6.7c8.7,2.2,17.4,4.5,26.2,6.5l-0.1,0.1
				c9.8,2.3,19.6,4.8,29.3,7.3c11.8,3,23.6,5.9,35.4,8.8c13,3.2,25.9,6.5,38.9,9.7c3.9,0.9,7.7,2.1,11.6,2.8
				c4.8,0.2,8.5-5.4,6.4-9.6c-2-3.5-4.7-6.7-6.9-10.2c-7.5-10.8-15.1-21.6-22.6-32.4c-6.9-9.8-13.6-19.6-20.5-29.4
				c-5.8-8.3-11.6-16.6-17.3-24.9c-4.7-6.7-9.5-13.4-14-20.2C184.9,70.9,182.3,72.3,179.5,73.6 M398.2,87.2
				c-6,8.8-12.1,17.4-18.1,26c-7,10-13.9,20-20.8,30c-7.2,10.4-14.4,20.7-21.6,31c-2.4,3.3-4.6,6.5-6.9,9.8
				c-1.1,1.6-2.1,3.5-1.8,5.5c0.3,3.9,4.4,7.2,8.2,6c4.9-1.1,9.6-2.4,14.5-3.5c11.8-3,23.5-5.8,35.3-8.8c11.7-2.9,23.5-5.8,35.2-8.7
				l-0.1-0.3c1.4,0.3,3-0.5,4.3-0.8c9-2.2,18.1-4.4,27.2-6.7c7.7-1.9,15.5-3.8,23.2-5.7c-0.3-1.4-0.6-2.9-1.2-4.3
				c-3-16.4,0.2-33.4-3.9-49.6c-2-8.3-7.9-15.4-15.3-19.5c-12-6.7-25.6-9-38.2-14.2c-2.6-1.2-5.1-2.5-7.5-4
				C406.5,75.3,402.5,81.3,398.2,87.2 M222.6,29.8c-8.4,8.1-14.5,18.2-21.7,27.3c-3.3,3.9-6.8,7.7-10.8,10.9
				c3.9,4.8,7.9,9.5,11.8,14.3c5.1,6.2,10.2,12.5,15.4,18.5h-0.1c6.3,7.5,12.3,15,18.5,22.5c7.5,9.1,15.1,18.2,22.6,27.4
				c3.5,4.2,6.9,8.3,10.3,12.4c4,4.8,7.9,9.9,12.1,14.5c3.5,3.8,10.7,1.5,11.4-3.6c0.6-6.4,0.5-12.8,0.9-19.3
				c0.3-5.2,0.4-10.4,0.6-15.6c0.4-11.8,0.9-23.6,1.4-35.4c0.4-9.9,0.7-19.7,1.1-29.6c0.3-7.8,0.6-15.6,0.9-23.5
				c0.2-6,0.5-12,0.6-18c-5.2-0.2-10.3-1.4-15.4-2.8c-12.4-3.5-24.6-9.3-37.6-9.5c-0.2,0-0.3,0-0.5,0
				C235.9,20.4,228.2,24.2,222.6,29.8 M352,20.5c-14.7,1-27.9,7.9-42.1,11c-3.1,0.6-6.2,1-9.5,1.2c0.4,9.8,0.8,19.6,1.1,29.4
				c0.4,10,0.8,19.9,1.2,29.9c0.2,7.3,0.5,14.5,0.9,21.8c0.4,10.4,0.8,20.8,1.2,31.1c0.4,9.7,0.5,19.4,1.3,29.1
				c0.8,5.3,8.4,7.4,11.8,3.3c6.2-7.4,12.2-14.8,18.4-22.2c6.6-8.1,13.2-16.2,20-24.2c4.5-5.5,9-11,13.5-16.6
				c6.5-7.8,12.9-15.6,19.3-23.4c6.3-7.7,12.6-15.3,18.9-23c-2.5-2-4.7-4.1-6.9-6.3h-0.2c-8.9-10.2-15.7-22.4-25.5-31.8
				c-5.7-5.6-13.3-9.4-21.4-9.4C353.5,20.4,352.7,20.4,352,20.5"/>
		</defs>
		<use xlink:href="#SVGID_17_"  style="overflow:visible;fill:#FFFFFF;"/>
		<clipPath id="SVGID_18_">
			<use xlink:href="#SVGID_17_"  style="overflow:visible;"/>
		</clipPath>
		<rect x="90.4" y="20.4" class="st8" width="418.1" height="256.5"/>
		<use xlink:href="#SVGID_17_"  style="overflow:visible;fill:none;stroke:#FFFFFF;stroke-miterlimit:10;"/>
	</g>
</g>
</svg>
